<svg xmlns="http://www.w3.org/2000/svg" viewBox="0 0 160 100" fill="none">
  <!-- open notebook: spine -->
  <line x1="80" y1="18" x2="80" y2="90" stroke="#EDE5CB" stroke-width="2" stroke-opacity="0.7"/>
  <!-- left page -->
  <path d="M80 18 Q50 18 16 22 L16 88 Q50 84 80 90" stroke="#EDE5CB" stroke-width="1.5" stroke-opacity="0.65" fill="#EDE5CB" fill-opacity="0.04"/>
  <!-- right page -->
  <path d="M80 18 Q110 18 144 22 L144 88 Q110 84 80 90" stroke="#EDE5CB" stroke-width="1.5" stroke-opacity="0.65" fill="#EDE5CB" fill-opacity="0.04"/>
  <!-- text lines: left page -->
  <line x1="24" y1="36" x2="72" y2="34" stroke="#EDE5CB" stroke-width="0.75" stroke-opacity="0.5"/>
  <line x1="24" y1="46" x2="72" y2="44" stroke="#EDE5CB" stroke-width="0.75" stroke-opacity="0.4"/>
  <line x1="24" y1="56" x2="72" y2="54" stroke="#EDE5CB" stroke-width="0.75" stroke-opacity="0.4"/>
  <line x1="24" y1="66" x2="65" y2="64" stroke="#EDE5CB" stroke-width="0.75" stroke-opacity="0.3"/>
  <!-- text lines: right page -->
  <line x1="88" y1="34" x2="136" y2="36" stroke="#EDE5CB" stroke-width="0.75" stroke-opacity="0.5"/>
  <line x1="88" y1="44" x2="136" y2="46" stroke="#EDE5CB" stroke-width="0.75" stroke-opacity="0.4"/>
  <line x1="88" y1="54" x2="136" y2="56" stroke="#EDE5CB" stroke-width="0.75" stroke-opacity="0.4"/>
  <line x1="88" y1="64" x2="128" y2="66" stroke="#EDE5CB" stroke-width="0.75" stroke-opacity="0.3"/>
  <!-- pen: terra-tipped, resting diagonally -->
  <line x1="50" y1="80" x2="130" y2="42" stroke="#EDE5CB" stroke-width="2.5" stroke-opacity="0.6" stroke-linecap="round"/>
  <circle cx="50" cy="80" r="3" fill="#E89265" opacity="0.9"/>
</svg>
